<svg
  xmlns="http://www.w3.org/2000/svg"
  width="340"
  height="72"
  viewBox="0 0 340 72"
  fill="none"
>
  <title>PasarConnect logo</title>
  <g transform="translate(4 6)">
    <path
      d="M18 19C22.8 11.8 30.4 8 39 8C47.6 8 55.2 11.8 60 19"
      stroke="#8B5E3C"
      stroke-width="4"
      stroke-linecap="round"
    />
    <path
      d="M11 22H67L61 47C59.8 52.2 55.2 56 49.8 56H28.2C22.8 56 18.2 52.2 17 47L11 22Z"
      fill="#F7F1E7"
      stroke="#1F4B3A"
      stroke-width="4"
      stroke-linejoin="round"
    />
    <path
      d="M17 22C21.2 28 27.4 31 35.6 31H42.4C50.6 31 56.8 28 61 22"
      stroke="#D87A43"
      stroke-width="4"
      stroke-linecap="round"
    />
    <path
      d="M25 41L39 31L53 41"
      stroke="#6AA276"
      stroke-width="4"
      stroke-linecap="round"
      stroke-linejoin="round"
    />
    <circle cx="25" cy="41" r="5.5" fill="#D87A43" />
    <circle cx="39" cy="31" r="5.5" fill="#1F4B3A" />
    <circle cx="53" cy="41" r="5.5" fill="#E0A93B" />
  </g>
  <g transform="translate(88 15)">
    <text
      x="0"
      y="24"
      fill="#173C31"
      font-family="Inter, ui-sans-serif, system-ui, -apple-system, BlinkMacSystemFont, 'Segoe UI', sans-serif"
      font-size="27"
      font-weight="700"
      letter-spacing="-0.5"
    >
      Pasar<tspan fill="#8B5E3C">Connect</tspan>
    </text>
    <text
      x="1"
      y="46"
      fill="#6D7D74"
      font-family="Inter, ui-sans-serif, system-ui, -apple-system, BlinkMacSystemFont, 'Segoe UI', sans-serif"
      font-size="10.5"
      font-weight="500"
      letter-spacing="1.6"
    >
      REDISTRIBUTION MARKETPLACE
    </text>
  </g>
</svg>
